# xmcd
#
# Track frame offsets: 
#        150
#        12587
#        21947
#        32242
#        43122
#        52887
#        63192
#        77290
#        88212
#        98210
#        108062
#        120420
#        130405
#        139905
#        152167
#        160737
#        169232
#        179107
#        189095
#        199327
#        209165
#        220572
#        228945
#        239342
#        250650
#        261260
#
# Disc length: 3617 seconds
#
# Revision: 7
# Processed by: cddbd v1.5.2PL0 Copyright (c) Steve Scherf et al.
# Submitted via: ExactAudioCopyFreeDBPlugin 1.0
#
DISCID=690e1f1a
DTITLE=Various Artist - The Specialty Story [disc 5]
DYEAR=1994
DGENRE=R&B
TTITLE0=Clydie King - Our Romance
TTITLE1=Little Richard - Jenny Jenny
TTITLE2=Little Richard - Miss Ann
TTITLE3=Larry Williams - Short Fat Fannie
TTITLE4=Don and Dewey - Leavin' It All Up To You
TTITLE5=Little Richard - Keep A-Knockin'
TTITLE6=Larry Williams - Bony Moronie
TTITLE7=Rene Hall's Orchestra featuring Willie Joe - Twitchy
TTITLE8=Sam Cooke - I'll Come Running Back To You
TTITLE9=Little Richard - Good Golly, Miss Molly
TTITLE10=Larry Williams - Slow Down
TTITLE11=Larry Williams - Dizzy, Miss Lizzy
TTITLE12=Don and Dewey - Justine
TTITLE13=Little Richard - True Fine Mama
TTITLE14=Little Richard - Ooh! My Soul
TTITLE15=Jerry Byrne - Lights Out
TTITLE16=The Soul Stirrers featuring Johnnie Taylor - The Love Of God
TTITLE17=Don and Dewey - Koko Joe
TTITLE18=Little Richard - Baby Face
TTITLE19=Roddy Jackson - Moose On The Loose
TTITLE20=Johnny Fuller - Haunted House
TTITLE21=Larry Williams - She Said, Yeah
TTITLE22=Larry Williams - Bad Boy
TTITLE23=Don and Dewey - Farmer John
TTITLE24=Don and Dewey - Big Boy Pete
TTITLE25=Little Richard - Bama Lama Bama Loo
EXTD=
EXTT0=
EXTT1=
EXTT2=
EXTT3=
EXTT4=
EXTT5=
EXTT6=
EXTT7=
EXTT8=
EXTT9=
EXTT10=
EXTT11=
EXTT12=
EXTT13=
EXTT14=
EXTT15=
EXTT16=
EXTT17=
EXTT18=
EXTT19=
EXTT20=
EXTT21=
EXTT22=
EXTT23=
EXTT24=
EXTT25=
PLAYORDER=
